<?xml version="1.0" standalone="no"?><!DOCTYPE svg PUBLIC "-//W3C//DTD SVG 1.1//EN" "http://www.w3.org/Graphics/SVG/1.1/DTD/svg11.dtd"><svg t="1629275320022" class="icon" viewBox="0 0 1024 1024" version="1.1" xmlns="http://www.w3.org/2000/svg" p-id="2787" xmlns:xlink="http://www.w3.org/1999/xlink" width="200" height="200"><defs><style type="text/css"></style></defs><path d="M297.50624 550.336l54.7648 449.0432 415.9936-6.336 57.9392-483.136s-72.032-2.464-96.2624 9.1968-111.4176 48.2816-160.9792 28.8-140.8768-36.9088-170.2464-33.472-76.352 9.792-101.2096 35.904z" fill="#F8C562" p-id="2788"></path><path d="M276.29024 410.112l17.8176 134.72s91.1552-45.2928 170.7072-27.488 137.2288 49.9968 197.8432 27.488 116.224-38.3232 147.712-34.0672 19.4624-114.432 19.4624-114.432l-558.9376 10.688z" fill="#FFF3EA" p-id="2789"></path><path d="M616.43744 544.4928l-56.5952-8.6272-36.1856-140.4992h56.3584l36.4224 149.1264z" fill="#FBFBFB" p-id="2790"></path><path d="M367.07424 1012.0576a22.2592 22.2592 0 0 1-23.3344-17.536L267.19584 404.608a9.6 9.6 0 0 1 9.3824-10.8352l562.9312-8.0064a9.728 9.728 0 0 1 7.232 3.1296 9.6128 9.6128 0 0 1 2.4512 7.488l-63.232 591.9168a22.4192 22.4192 0 0 1-23.2768 18.1376l-395.1808 5.6192z m-4.2304-20.0384a10.208 10.208 0 0 0 4.3712 0.832l395.1936-5.6128a6.4384 6.4384 0 0 0 4.6272-1.5616l61.9072-580.5632-541.3312 7.6992 75.168 579.232z" p-id="2791"></path><path d="M296.19424 556.4288a9.6 9.6 0 0 1-6.4832-16.6784c2.144-1.9584 53.76-47.936 164-37.408a362.8992 362.8992 0 0 1 98.688 21.6448c3.7184 1.3184 7.3088 2.5856 10.88 3.776a150.2144 150.2144 0 0 0 53.44 8.128 272.256 272.256 0 0 0 18.4832-0.8512c47.6672-3.6736 62.8544-11.7248 77.5488-19.52a121.4336 121.4336 0 0 1 42.1312-14.7904c48.9856-8.1792 74.272-1.0688 75.3216-0.768a9.6 9.6 0 0 1-5.3248 18.4512c-0.4352-0.128-22.9504-6.0608-66.848 1.2544a102.4512 102.4512 0 0 0-36.288 12.8128c-15.6672 8.3072-33.4144 17.7216-85.024 21.696-6.4 0.5248-12.8704 0.8192-19.7504 0.9216a168.896 168.896 0 0 1-59.744-9.1136c-3.7056-1.2352-7.4048-2.5408-11.232-3.904a341.824 341.824 0 0 0-94.112-20.6272c-101.8752-9.7536-148.736 32.032-149.2032 32.4608a9.5616 9.5616 0 0 1-6.4832 2.5152z" p-id="2792"></path><path d="M385.471323 824.451145a20.1216 27.5392 89.062 1 0 55.07102-0.901658 20.1216 27.5392 89.062 1 0-55.07102 0.901658Z" p-id="2793"></path><path d="M529.580123 818.473545a20.1216 27.5392 89.062 1 0 55.07102-0.901658 20.1216 27.5392 89.062 1 0-55.07102 0.901658Z" p-id="2794"></path><path d="M698.226103 781.391844a20.1216 27.5392 89.062 1 0 55.07102-0.901659 20.1216 27.5392 89.062 1 0-55.07102 0.901659Z" p-id="2795"></path><path d="M516.932141 950.167883a20.1216 27.5392 89.06 1 0 55.070988-0.903581 20.1216 27.5392 89.06 1 0-55.070988 0.903581Z" p-id="2796"></path><path d="M461.110097 890.432183a20.1216 27.5392 89.06 1 0 55.070988-0.903581 20.1216 27.5392 89.06 1 0-55.070988 0.903581Z" p-id="2797"></path><path d="M650.919151 847.48253a20.1216 27.5392 89.06 1 0 55.070987-0.903581 20.1216 27.5392 89.06 1 0-55.070987 0.903581Z" p-id="2798"></path><path d="M585.654173 896.022212a20.1216 27.5392 89.06 1 0 55.070987-0.903581 20.1216 27.5392 89.06 1 0-55.070987 0.903581Z" p-id="2799"></path><path d="M672.855827 955.142248a20.1216 27.5392 89.06 1 0 55.070987-0.90358 20.1216 27.5392 89.06 1 0-55.070987 0.90358Z" p-id="2800"></path><path d="M387.192608 963.811043a20.1216 27.5392 89.062 1 0 55.071019-0.901658 20.1216 27.5392 89.062 1 0-55.071019 0.901658Z" p-id="2801"></path><path d="M610.23584 549.4144a166.1824 166.1824 0 0 1-56.704-9.1328 9.6 9.6 0 0 1-6.272-6.72l-36.1856-140.4992a9.6 9.6 0 0 1 18.592-4.7872l34.8608 135.3664a140.3776 140.3776 0 0 0 36.1792 6.3488l-35.4752-137.7024a9.6 9.6 0 0 1 18.592-4.7872l38.6176 149.9008a9.6 9.6 0 0 1-9.1776 11.9936q-1.536 0.0192-3.0336 0.0192z" p-id="2802"></path><path d="M483.49664 244.2496l-46.208-179.4176c-1.408-5.568 3.584-10.9696 11.2192-12.0512l24.7936-3.6288a14.2592 14.2592 0 0 1 16.3776 8.0704l47.9744 186.2656" fill="#FFFFFF" p-id="2803"></path><path d="M483.49024 253.856a9.6 9.6 0 0 1-9.2928-7.2064l-46.208-179.424a17.472 17.472 0 0 1 2.5536-14.1952 23.7824 23.7824 0 0 1 16.6144-9.7536l24.7488-3.6288a23.6608 23.6608 0 0 1 27.0784 15.232l47.968 186.208a9.6 9.6 0 0 1-18.592 4.7872L480.37984 59.6096a9.0048 9.0048 0 0 0-5.7344-0.9536l-24.7488 3.6224a6.5984 6.5984 0 0 0-3.072 1.12l45.9712 178.464a9.6 9.6 0 0 1-6.9056 11.6864 9.3696 9.3696 0 0 1-2.4 0.3072z" p-id="2804"></path><path d="M854.76064 332.9344l-50.08-86.88a14.7392 14.7392 0 0 0-13.0624-6.1888l-481.568 6.848a14.8416 14.8416 0 0 0-12.864 6.4896L248.14304 341.632a14.848 14.848 0 0 1-12.8704 6.4896l-17.216 0.2432c-7.7568 0.1088-13.9776 4.7872-13.9072 10.4512l0.4352 35.328c0.064 5.6576 6.4064 10.1568 14.1568 10.048l678.848-9.6576c7.7568-0.1088 13.9776-4.7872 13.9072-10.4512l-0.4352-35.328c-0.064-5.6576-6.4064-10.1632-14.1568-10.048l-29.088 0.416a14.7392 14.7392 0 0 1-13.0624-6.1888z" fill="#E5ECEC" p-id="2805"></path><path d="M218.45984 413.792a25.4976 25.4976 0 0 1-17.7984-6.7648 18.1248 18.1248 0 0 1-5.6704-12.768l-0.4416-35.328c-0.128-11.1168 10.1312-19.968 23.3664-20.16l17.2288-0.2496a6.5152 6.5152 0 0 0 4.6208-1.5616l49.024-88.416a24.1408 24.1408 0 0 1 21.12-11.424l481.568-6.848a24.0832 24.0832 0 0 1 21.5232 10.9952l50.0608 86.8544a7.9616 7.9616 0 0 0 4.6272 1.408l29.088-0.416a26.2592 26.2592 0 0 1 18.2208 6.7712 18.1312 18.1312 0 0 1 5.6768 12.7616l0.4288 35.328c0.1408 11.136-10.1248 19.9872-23.3664 20.16l-678.848 9.664z m-4.2816-20.4032a8.4928 8.4928 0 0 0 4.4288 1.2032l678.8608-9.6576a7.1488 7.1488 0 0 0 4.4352-1.3568l-0.4224-34.0608a6.784 6.784 0 0 0-4.4352-1.216l-29.0816 0.4224a24.2304 24.2304 0 0 1-21.5168-10.9888l-50.08-86.8864a7.5328 7.5328 0 0 0-4.608-1.3824L310.19104 256.32a6.528 6.528 0 0 0-4.6272 1.5616l-49.024 88.4032a24.128 24.128 0 0 1-21.12 11.4368l-17.2288 0.2432a7.1232 7.1232 0 0 0-4.4352 1.3632z" p-id="2806"></path><path d="M326.68384 359.4432a9.6 9.6 0 0 1-0.1344-19.2l449.6-6.3936a9.44 9.44 0 0 1 9.7344 9.4592 9.6 9.6 0 0 1-9.4592 9.7408l-449.6 6.3936z" p-id="2807"></path><path d="M384.63584 767.872a9.6 9.6 0 0 1-9.5104-8.416L352.62304 578.624a9.6 9.6 0 0 1 19.0528-2.3744l22.496 180.832a9.6128 9.6128 0 0 1-9.536 10.784z" fill="#FBFAF9" p-id="2808"></path></svg>