<?xml version="1.0" standalone="no"?><!DOCTYPE svg PUBLIC "-//W3C//DTD SVG 1.1//EN" "http://www.w3.org/Graphics/SVG/1.1/DTD/svg11.dtd"><svg t="1629275329367" class="icon" viewBox="0 0 1024 1024" version="1.1" xmlns="http://www.w3.org/2000/svg" p-id="2945" xmlns:xlink="http://www.w3.org/1999/xlink" width="200" height="200"><defs><style type="text/css"></style></defs><path d="M723.24704 368.32h160.6208a13.984 13.984 0 0 1 14.8864 12.7424v358.3872a13.9392 13.9392 0 0 1-14.8864 12.7424h-160.6208" fill="#FFFFFF" p-id="2946"></path><path d="M883.87424 761.792h-160.6272a9.6 9.6 0 0 1 0-19.2h160.6272c3.2256 0 5.28-1.856 5.28-3.136V381.0624c0-1.248-2.1056-3.136-5.28-3.136h-160.6272a9.6 9.6 0 0 1 0-19.2h160.6272a23.5136 23.5136 0 0 1 24.48 22.336v358.3872a23.5136 23.5136 0 0 1-24.48 22.3424z" p-id="2947"></path><path d="M815.39424 708.1472h-92.1472a9.6 9.6 0 0 1 0-19.2h92.1472c3.2256 0 5.2864-1.8624 5.2864-3.1424V426.6176c0-1.3184-2.0096-3.136-5.2864-3.136h-92.1472a9.6 9.6 0 0 1 0-19.2h92.1472a23.5136 23.5136 0 0 1 24.4864 22.336v259.1872a23.5136 23.5136 0 0 1-24.4864 22.336z" p-id="2948"></path><path d="M198.72224 310.656v615.8528a13.9392 13.9392 0 0 0 14.8864 12.7424h494.752a13.9392 13.9392 0 0 0 14.8864-12.7424V278.0992" fill="#FFFFFF" p-id="2949"></path><path d="M708.36064 948.8512H213.60864a23.5136 23.5136 0 0 1-24.4864-22.3424V310.656a9.6 9.6 0 0 1 19.2 0v615.8528c0 1.28 2.0608 3.136 5.2864 3.136h494.752c3.2256 0 5.2864-1.856 5.2864-3.136V278.0992a9.6 9.6 0 1 1 19.2 0v648.4096a23.52 23.52 0 0 1-24.4864 22.3424z" p-id="2950"></path><path d="M231.02304 316.2624v567.6864a13.9392 13.9392 0 0 0 14.8928 12.7424h430.144a13.9392 13.9392 0 0 0 14.8864-12.736V324.928" fill="#F8D74E" p-id="2951"></path><path d="M676.05344 906.2976h-430.144a23.5136 23.5136 0 0 1-24.4864-22.3488v-567.68a9.6 9.6 0 0 1 19.2 0v567.68c0 1.28 2.0608 3.1488 5.2864 3.1488h430.144c3.232 0 5.2928-1.8624 5.2928-3.1488V324.9408a9.6 9.6 0 1 1 19.2 0v559.0208a23.52 23.52 0 0 1-24.4928 22.336z" p-id="2952"></path><path d="M790.73504 203.4432c0-44.608-48.8832-80.768-109.184-80.768a143.3792 143.3792 0 0 0-37.2672 4.928C636.28384 87.904 590.13984 57.4272 534.26784 57.4272c-44.2496 0-82.3552 19.136-100.3264 46.784a130.752 130.752 0 0 0-78.4768-24.0128c-58.2784 0-105.5168 32.2816-105.5168 72.096 0 1.4208 0.192 2.7968 0.3072 4.192a147.936 147.936 0 0 0-10.5664-0.3968c-59.904 0-108.4544 35.9232-108.4544 80.2368s48.5568 80.2304 108.4544 80.2304a143.552 143.552 0 0 0 33.184-3.8592c18.3232 35.8336 65.1136 61.3184 119.968 61.3184a157.0752 157.0752 0 0 0 82.08-21.9904 176.8704 176.8704 0 0 0 92.32 24.704c74.592 0 135.9552-41.8496 143.5584-95.5392 46.08-9.472 79.9424-40.6464 79.9424-77.76z" fill="#F1E8D0" p-id="2953"></path><path d="M567.24064 386.336a189.6768 189.6768 0 0 1-92.3328-23.168 169.7152 169.7152 0 0 1-82.0736 20.4608c-54.272 0-102.3232-23.36-124.8704-60.0768a153.6384 153.6384 0 0 1-28.288 2.6112c-65.088 0-118.048-40.3008-118.048-89.8304s52.96-89.8304 118.0544-89.8304h0.9472c4.1984-42.3488 54.0992-75.904 114.8288-75.904a145.92 145.92 0 0 1 76.2432 20.4352c21.952-26.8544 60.2496-43.2 102.56-43.2 55.7632 0 103.0272 28.192 116.832 68.3008a153.2672 153.2672 0 0 1 30.464-3.0592c65.4912 0 118.784 40.544 118.784 90.368 0 39.0208-33.0816 73.5616-81.2288 85.696-12.1536 55.8592-75.9552 97.1968-151.872 97.1968z m-92.3264-43.904a9.6 9.6 0 0 1 5.0368 1.4272 168.256 168.256 0 0 0 87.2896 23.2768c69.376 0 127.0016-37.5296 134.048-87.2832a9.6 9.6 0 0 1 7.5712-8.064c42.56-8.736 72.2752-36.8448 72.2752-68.3456 0-39.2448-44.672-71.168-99.584-71.168a133.8112 133.8112 0 0 0-34.7712 4.5952 9.6 9.6 0 0 1-11.904-7.3664c-7.1872-35.616-50.4384-62.4704-100.608-62.4704-39.3088 0-75.5328 16.6528-92.288 42.4192a9.6 9.6 0 0 1-6.4 4.224 9.472 9.472 0 0 1-7.456-1.8176 121.92 121.92 0 0 0-72.6592-22.0544c-52.896 0-95.9232 28.032-95.9232 62.496 0 0.704 0.0832 1.3888 0.1536 2.0736l0.1216 1.312a9.6 9.6 0 0 1-10.2528 10.3872 138.9568 138.9568 0 0 0-9.8816-0.3712c-54.5088 0-98.8544 31.6864-98.8544 70.6304s44.352 70.6304 98.8544 70.6304a134.2464 134.2464 0 0 0 30.9696-3.5968 9.5488 9.5488 0 0 1 10.7648 4.9664c17.152 33.5488 61.9328 56.096 111.424 56.096a148.352 148.352 0 0 0 77.0368-20.5632 9.5616 9.5616 0 0 1 5.0368-1.4336zM335.55424 695.1168c-22.0608 0-40-15.9808-40-35.6288s17.9392-35.6288 40-35.6288 40.0064 15.9808 40.0064 35.6288-17.9456 35.6288-40 35.6288z m0-52.0576c-11.4688 0-20.8 7.3664-20.8 16.4288s9.3312 16.4288 20.8 16.4288 20.8064-7.3728 20.8064-16.4288-9.3312-16.4288-20.8-16.4288zM371.79104 556.5888c-19.584 0-35.52-14.2592-35.52-31.7888s15.936-31.7888 35.52-31.7888 35.52 14.2656 35.52 31.7888-15.936 31.7888-35.52 31.7888z m0-44.3712A13.0176 13.0176 0 1 0 388.11104 524.8a15.0272 15.0272 0 0 0-16.32-12.5824zM510.39584 501.536a29.2864 29.2864 0 1 1 32.4032-29.12 30.9248 30.9248 0 0 1-32.4096 29.12z m0-39.04c-7.1616 0-13.2096 4.544-13.2096 9.92s6.048 9.92 13.2032 9.92 13.2096-4.544 13.2096-9.92-6.048-9.92-13.2096-9.92zM569.69824 616.0768c-20.1792 0-36.5952-14.6752-36.5952-32.7104s16.416-32.704 36.5952-32.704 36.6016 14.6752 36.6016 32.704-16.416 32.7104-36.6016 32.7104z m0-46.2208c-9.4272 0-17.3952 6.1888-17.3952 13.504 0 7.4496 7.808 13.5168 17.3952 13.5168 9.4336 0 17.4016-6.1888 17.4016-13.5168s-7.968-13.504-17.4016-13.504zM569.69824 733.2096c-20.1792 0-36.5952-14.6752-36.5952-32.7104s16.416-32.7168 36.5952-32.7168 36.6016 14.6752 36.6016 32.7168-16.416 32.704-36.6016 32.704z m0-46.2272c-9.5936 0-17.3952 6.0608-17.3952 13.5168 0 7.3216 7.968 13.504 17.3952 13.504s17.4016-6.1824 17.4016-13.504-7.968-13.5168-17.4016-13.5168zM464.78304 686.9824a27.648 27.648 0 1 1 30.5024-27.4944 29.1456 29.1456 0 0 1-30.5024 27.4944z m0-35.7888c-6.1248 0-11.3024 3.8016-11.3024 8.2944s5.1776 8.2944 11.3024 8.2944 11.3024-3.8016 11.3024-8.2944-5.1712-8.2944-11.3024-8.2944zM401.21184 826.8288c-21.5168 0-39.0272-15.6096-39.0272-34.7904s17.5104-34.784 39.0272-34.784 39.0272 15.6032 39.0272 34.784-17.504 34.7904-39.0272 34.7904z m0-50.3744c-10.9312 0-19.8272 6.9888-19.8272 15.584s8.896 15.5904 19.8272 15.5904 19.8272-6.9952 19.8272-15.5904-8.896-15.584-19.8272-15.584zM611.11264 872.4288a29.2864 29.2864 0 1 1 32.4032-29.12 30.9248 30.9248 0 0 1-32.4032 29.12z m0-39.04c-7.1552 0-13.2032 4.544-13.2032 9.92s6.048 9.92 13.2032 9.92 13.2032-4.544 13.2032-9.92-6.0416-9.92-13.2032-9.92z" p-id="2954"></path><path d="M282.34464 808.9856a9.6 9.6 0 0 1-9.6-9.6V432.7808a9.6 9.6 0 0 1 19.2 0v366.6048a9.6 9.6 0 0 1-9.6 9.6zM291.84864 177.8816a9.6 9.6 0 0 1-9.6-9.6c0-32.1984 32.0128-58.4 71.36-58.4a9.6 9.6 0 0 1 0 19.2c-28.7616 0-52.16 17.5872-52.16 39.2a9.6 9.6 0 0 1-9.6 9.6z" fill="#FFFFFF" p-id="2955"></path></svg>